<svg xmlns="http://www.w3.org/2000/svg" width="400" height="154" viewBox="0 0 400 154" role="img" aria-label="Languages in my repositories">
  <rect x="0.5" y="0.5" width="399" height="153" rx="9.5" fill="#F3F8F7" stroke="#D1D9E0"/>
  <text x="24" y="36" font-family="-apple-system, 'Segoe UI', Helvetica, Arial, sans-serif" font-size="15" font-weight="600" fill="#0E6E66">Languages in my repositories</text>
  <clipPath id="bar"><rect x="24" y="52" width="352" height="8" rx="4"/></clipPath>
  <rect x="24" y="52" width="352" height="8" rx="4" fill="#DDE9E7"/>
  <g clip-path="url(#bar)">
    <rect x="24.00" y="52" width="266.90" height="8" fill="#3178c6" stroke="#F3F8F7" stroke-width="1"/>
    <rect x="290.90" y="52" width="66.93" height="8" fill="#e34c26" stroke="#F3F8F7" stroke-width="1"/>
    <rect x="357.83" y="52" width="7.40" height="8" fill="#f1e05a" stroke="#F3F8F7" stroke-width="1"/>
    <rect x="365.23" y="52" width="5.36" height="8" fill="#ff5a03" stroke="#F3F8F7" stroke-width="1"/>
    <rect x="370.59" y="52" width="3.45" height="8" fill="#663399" stroke="#F3F8F7" stroke-width="1"/>
    <rect x="374.04" y="52" width="2.00" height="8" fill="#3572A5" stroke="#F3F8F7" stroke-width="1"/>
  </g>
  <circle cx="29" cy="84" r="5" fill="#3178c6"/>
  <text x="40" y="88" font-family="-apple-system, 'Segoe UI', Helvetica, Arial, sans-serif" font-size="12" fill="#1F2D2B">TypeScript <tspan fill="#5B6B69">75.7%</tspan></text>
  <circle cx="205" cy="84" r="5" fill="#e34c26"/>
  <text x="216" y="88" font-family="-apple-system, 'Segoe UI', Helvetica, Arial, sans-serif" font-size="12" fill="#1F2D2B">HTML <tspan fill="#5B6B69">19.0%</tspan></text>
  <circle cx="29" cy="106" r="5" fill="#f1e05a"/>
  <text x="40" y="110" font-family="-apple-system, 'Segoe UI', Helvetica, Arial, sans-serif" font-size="12" fill="#1F2D2B">JavaScript <tspan fill="#5B6B69">2.1%</tspan></text>
  <circle cx="205" cy="106" r="5" fill="#ff5a03"/>
  <text x="216" y="110" font-family="-apple-system, 'Segoe UI', Helvetica, Arial, sans-serif" font-size="12" fill="#1F2D2B">Astro <tspan fill="#5B6B69">1.5%</tspan></text>
  <circle cx="29" cy="128" r="5" fill="#663399"/>
  <text x="40" y="132" font-family="-apple-system, 'Segoe UI', Helvetica, Arial, sans-serif" font-size="12" fill="#1F2D2B">CSS <tspan fill="#5B6B69">1.0%</tspan></text>
  <circle cx="205" cy="128" r="5" fill="#3572A5"/>
  <text x="216" y="132" font-family="-apple-system, 'Segoe UI', Helvetica, Arial, sans-serif" font-size="12" fill="#1F2D2B">Python <tspan fill="#5B6B69">0.6%</tspan></text>
</svg>
